<svg xmlns="http://www.w3.org/2000/svg" version="1.1" viewBox="-5.0 -10.0 110.0 135.0">
 <g>
  <path d="m43.75 18.754c0 3.4336 2.7852 6.2266 6.2109 6.2461h43.789v-7.8125c0-5.1719-4.2031-9.375-9.375-9.375h-42.324c1.0742 1.8438 1.6992 3.9805 1.6992 6.2656v4.6797zm35.938-4.6836c1.7266 0 3.125 1.3984 3.125 3.125 0 1.7266-1.3984 3.125-3.125 3.125s-3.125-1.3984-3.125-3.125c0-1.7266 1.3984-3.125 3.125-3.125zm-9.375 0c1.7266 0 3.125 1.3984 3.125 3.125 0 1.7266-1.3984 3.125-3.125 3.125s-3.125-1.3984-3.125-3.125c0-1.7266 1.3984-3.125 3.125-3.125zm-9.375 0c1.7266 0 3.125 1.3984 3.125 3.125 0 1.7266-1.3984 3.125-3.125 3.125s-3.125-1.3984-3.125-3.125c0-1.7266 1.3984-3.125 3.125-3.125z"/>
  <path d="m39.191 25c-1.0664-1.8398-1.6914-3.9688-1.6914-6.2461v-4.6797c0-3.4453-2.8047-6.25-6.25-6.25v-0.015625h-14.062c-5.1719 0-9.375 4.2031-9.375 9.375v7.8125h31.379z"/>
  <path d="m87.5 31.25h-79.688v51.562c0 5.1719 4.2031 9.375 9.375 9.375h67.188c5.1719 0 9.375-4.2031 9.375-9.375v-51.562zm-47.789 40.09c1.2188 1.2188 1.2188 3.1992 0 4.418-0.60938 0.60938-1.4102 0.91406-2.2109 0.91406s-1.6016-0.30469-2.2109-0.91406l-11.047-11.047c-1.2188-1.2188-1.2188-3.1992 0-4.418l11.047-11.047c1.2188-1.2188 3.1992-1.2188 4.418 0s1.2188 3.1992 0 4.418l-8.8398 8.8398 8.8398 8.8398zm16.434-20.535-6.25 23.438c-0.375 1.3984-1.6367 2.3203-3.0156 2.3203-0.26562 0-0.53906-0.035156-0.80859-0.10547-1.668-0.44531-2.6602-2.1562-2.2148-3.8242l6.25-23.438c0.44531-1.668 2.1523-2.6602 3.8242-2.2148 1.668 0.44531 2.6562 2.1562 2.2148 3.8242zm19.613 13.906-11.047 11.047c-0.60938 0.60938-1.4102 0.91406-2.2109 0.91406s-1.5977-0.30469-2.2109-0.91406c-1.2188-1.2188-1.2188-3.1992 0-4.418l8.8398-8.8398-8.8398-8.8398c-1.2188-1.2188-1.2188-3.1992 0-4.418s3.1992-1.2188 4.418 0l11.047 11.047c1.2188 1.2188 1.2188 3.1992 0 4.418z"/>
 </g>
</svg>
